<svg xmlns="http://www.w3.org/2000/svg" width="32" height="32" fill="none" viewBox="0 0 32 32"><path fill="#ED1B1B" fill-rule="evenodd" d="M22.503 7.832c2.176-1.141 5.666-1.15 9.497.23l-1.17 3.249c-3.362-1.21-5.746-.933-6.723-.42a1.215 1.215 0 0 0-.313.214c.047.103.19.336.625.676 1.236.967 2.747 2.166 4.04 3.41 1.23 1.184 2.524 2.647 3.005 4.17.26.825.324 1.8-.128 2.75-.443.933-1.253 1.57-2.186 2.003-1.794.832-4.64 1.185-8.701 1.112l.061-3.452c3.997.071 6.157-.315 7.187-.792.38-.177.494-.314.517-.348a.672.672 0 0 0-.043-.232c-.195-.618-.895-1.557-2.107-2.723-1.15-1.107-2.532-2.207-3.773-3.178-1.126-.881-2.015-2.086-1.97-3.535.048-1.505 1.072-2.552 2.182-3.134ZM28.21 20.65s0-.004.003-.011c0 .008-.002.012-.003.011Zm-4.458-9.487s.001-.007.01-.02c-.004.014-.009.02-.01.02ZM0 8.61l3.089-1.544L8.45 17.79l5.362-10.724 3.089 1.544-8.45 16.901L0 8.611Z" clip-rule="evenodd"/></svg>